<svg width="1000" height="562" viewBox="0 0 1000 562" fill="none" xmlns="http://www.w3.org/2000/svg">
<path d="M509.748 40V522.797" stroke="white" stroke-width="2"/>
<path d="M262.547 288.362H509.168" stroke="white" stroke-width="2"/>
<circle cx="508.588" cy="288.942" r="67.8131" stroke="white"/>
<circle cx="508.878" cy="289.233" r="47.7933" stroke="white"/>
<circle cx="509.168" cy="288.362" r="91.0245" stroke="white"/>
<mask id="path-6-outside-1_39_6" maskUnits="userSpaceOnUse" x="300.836" y="81.0278" width="209.665" height="415.334" fill="black">
<rect fill="white" x="300.836" y="81.0278" width="209.665" height="415.334"/>
<path d="M508.838 494.363C454.203 494.276 401.841 472.488 363.27 433.793C324.699 395.099 303.079 342.667 303.167 288.032C303.255 233.397 325.042 181.035 363.737 142.464C402.431 103.893 454.863 82.2736 509.498 82.3611L509.168 288.362L508.838 494.363Z"/>
</mask>
<path d="M508.838 494.363C454.203 494.276 401.841 472.488 363.27 433.793C324.699 395.099 303.079 342.667 303.167 288.032C303.255 233.397 325.042 181.035 363.737 142.464C402.431 103.893 454.863 82.2736 509.498 82.3611L509.168 288.362L508.838 494.363Z" stroke="white" stroke-width="2" mask="url(#path-6-outside-1_39_6)"/>
<mask id="path-7-outside-2_39_6" maskUnits="userSpaceOnUse" x="396.981" y="176.046" width="114.36" height="225.182" fill="black">
<rect fill="white" x="396.981" y="176.046" width="114.36" height="225.182"/>
<path d="M509.847 399.5C480.372 399.453 452.123 387.698 431.314 366.823C410.505 345.947 398.842 317.661 398.889 288.185C398.936 258.71 410.69 230.461 431.566 209.652C452.441 188.844 480.728 177.18 510.203 177.227L510.025 288.363L509.847 399.5Z"/>
</mask>
<path d="M509.847 399.5C480.372 399.453 452.123 387.698 431.314 366.823C410.505 345.947 398.842 317.661 398.889 288.185C398.936 258.71 410.69 230.461 431.566 209.652C452.441 188.844 480.728 177.18 510.203 177.227L510.025 288.363L509.847 399.5Z" stroke="white" stroke-width="2" mask="url(#path-7-outside-2_39_6)"/>
<mask id="path-8-outside-3_39_6" maskUnits="userSpaceOnUse" x="384.17" y="163.259" width="127.4" height="250.203" fill="black">
<rect fill="white" x="384.17" y="163.259" width="127.4" height="250.203"/>
<path d="M509.268 412.266C476.407 412.214 444.912 399.109 421.713 375.835C398.514 352.562 385.51 321.025 385.563 288.164C385.616 255.303 398.72 223.808 421.994 200.609C445.268 177.41 476.804 164.406 509.665 164.459L509.467 288.363L509.268 412.266Z"/>
</mask>
<path d="M509.268 412.266C476.407 412.214 444.912 399.109 421.713 375.835C398.514 352.562 385.51 321.025 385.563 288.164C385.616 255.303 398.72 223.808 421.994 200.609C445.268 177.41 476.804 164.406 509.665 164.459L509.467 288.363L509.268 412.266Z" stroke="white" stroke-width="2" mask="url(#path-8-outside-3_39_6)"/>
<mask id="path-9-outside-4_39_6" maskUnits="userSpaceOnUse" x="356.192" y="135.905" width="155.49" height="306.248" fill="black">
<rect fill="white" x="356.192" y="135.905" width="155.49" height="306.248"/>
<path d="M509.454 440.632C469.21 440.567 430.64 424.519 402.228 396.016C373.817 367.514 357.892 328.892 357.957 288.648C358.021 248.404 374.07 209.834 402.572 181.423C431.075 153.011 469.696 137.086 509.94 137.151L509.697 288.891L509.454 440.632Z"/>
</mask>
<path d="M509.454 440.632C469.21 440.567 430.64 424.519 402.228 396.016C373.817 367.514 357.892 328.892 357.957 288.648C358.021 248.404 374.07 209.834 402.572 181.423C431.075 153.011 469.696 137.086 509.94 137.151L509.697 288.891L509.454 440.632Z" stroke="white" stroke-width="2" mask="url(#path-9-outside-4_39_6)"/>
<mask id="path-10-outside-5_39_6" maskUnits="userSpaceOnUse" x="316.916" y="96.099" width="194.617" height="385.31" fill="black">
<rect fill="white" x="316.916" y="96.099" width="194.617" height="385.31"/>
<path d="M509.433 480.375C458.648 480.294 409.976 460.042 374.123 424.074C338.27 388.106 318.174 339.369 318.256 288.585C318.337 237.8 338.589 189.128 374.557 153.275C410.525 117.422 459.262 97.326 510.046 97.4074L509.74 288.891L509.433 480.375Z"/>
</mask>
<path d="M509.433 480.375C458.648 480.294 409.976 460.042 374.123 424.074C338.27 388.106 318.174 339.369 318.256 288.585C318.337 237.8 338.589 189.128 374.557 153.275C410.525 117.422 459.262 97.326 510.046 97.4074L509.74 288.891L509.433 480.375Z" stroke="white" stroke-width="2" mask="url(#path-10-outside-5_39_6)"/>
<mask id="path-11-outside-6_39_6" maskUnits="userSpaceOnUse" x="336.217" y="115.857" width="175.554" height="346.28" fill="black">
<rect fill="white" x="336.217" y="115.857" width="175.554" height="346.28"/>
<path d="M509.462 460.648C463.909 460.575 420.251 442.41 388.092 410.147C355.933 377.885 337.907 334.169 337.98 288.616C338.053 243.063 356.219 199.405 388.481 167.246C420.743 135.087 464.459 117.061 510.012 117.134L509.737 288.891L509.462 460.648Z"/>
</mask>
<path d="M509.462 460.648C463.909 460.575 420.251 442.41 388.092 410.147C355.933 377.885 337.907 334.169 337.98 288.616C338.053 243.063 356.219 199.405 388.481 167.246C420.743 135.087 464.459 117.061 510.012 117.134L509.737 288.891L509.462 460.648Z" stroke="white" stroke-width="2" mask="url(#path-11-outside-6_39_6)"/>
<mask id="path-12-outside-7_39_6" maskUnits="userSpaceOnUse" x="293.377" y="71.6472" width="218.17" height="433.086" fill="black">
<rect fill="white" x="293.377" y="71.6472" width="218.17" height="433.086"/>
<path d="M509.664 73.0762C452.566 73.0986 397.817 95.802 357.459 136.192C317.1 176.582 294.44 231.349 294.463 288.447C294.485 345.544 317.188 400.294 357.578 440.652C397.968 481.01 452.736 503.67 509.833 503.648L509.748 288.362L509.664 73.0762Z"/>
</mask>
<path d="M509.664 73.0762C452.566 73.0986 397.817 95.802 357.459 136.192C317.1 176.582 294.44 231.349 294.463 288.447C294.485 345.544 317.188 400.294 357.578 440.652C397.968 481.01 452.736 503.67 509.833 503.648L509.748 288.362L509.664 73.0762Z" stroke="white" stroke-width="2" mask="url(#path-12-outside-7_39_6)"/>
<path d="M562.554 233.815L542.244 219.888L562.554 174.626L591.569 135.167L628.127 161.86L599.693 198.998L562.554 233.815Z" stroke="white" stroke-width="2"/>
<path d="M557.83 245.421L533.54 228.709L557.83 174.394L592.529 127.043L636.251 159.075L602.245 203.64L557.83 245.421Z" stroke="white" stroke-width="2"/>
<path d="M633.349 272.114L583.445 276.756L575.901 250.644L618.842 228.593M633.349 272.114L678.611 258.187L665.265 214.086L618.842 228.593M633.349 272.114L618.842 228.593" stroke="white" stroke-width="2"/>
<path d="M626.7 277.809L569.465 283.14L560.813 253.158L610.062 227.84M626.7 277.809L678.611 261.819L663.304 211.184L610.062 227.84M626.7 277.809L610.062 227.84" stroke="white" stroke-width="2"/>
<path d="M509.168 288.942L693.119 348.712C705.246 301.271 705.773 275.065 693.119 229.173L589.247 263.41M633.929 425.89C655.069 404.508 664.297 391.656 676.29 367.281" stroke="white" stroke-width="2"/>
<path d="M580.543 311.574L584.605 298.227M584.605 298.227L634.51 305.19M584.605 298.227L636.831 300.548L678.611 315.055V320.858M634.51 305.19L678.611 320.858M634.51 305.19L627.546 327.241M678.611 320.858L672.228 341.748" stroke="white" stroke-width="2"/>
<path d="M600.273 378.306L563.135 342.329L541.084 358.577L566.036 403.839M600.273 378.306L627.546 416.025L592.149 439.817L566.036 403.839M600.273 378.306L566.036 403.839" stroke="white" stroke-width="2"/>
<path d="M602.594 373.664L561.394 333.044L534.701 353.354L558.492 407.901M602.594 373.664L632.189 413.704L588.087 445.039L558.492 407.901M602.594 373.664L558.492 407.901M632.189 277.337V299.968M616.521 226.272L611.588 218.873M602.594 205.381L606.656 211.474M606.656 211.474L561.394 247.162M606.656 211.474L611.588 218.873M561.394 247.162L564.295 251.804M561.394 247.162L541.664 258.187M564.295 251.804L611.588 218.873M564.295 251.804L547.467 262.249L558.492 286.621H576.481V294.165H558.492L553.27 304.03L572.419 310.413M531.219 226.272L553.27 169.984L541.664 165.922L523.095 222.21L531.219 226.272ZM531.219 226.272L527.157 247.162M593.89 353.354L606.656 327.822L584.025 315.636L572.419 337.686L593.89 353.354ZM531.219 113.116L534.701 118.919V169.984L531.219 179.268L527.157 169.984V118.919L531.219 113.116Z" stroke="white" stroke-width="2"/>
<path d="M528.318 117.758H511.489M511.489 161.86H528.318M511.489 179.268H528.318L522.515 213.505H511.489" stroke="white" stroke-width="2"/>
<circle cx="514.681" cy="187.683" r="3.19157" fill="white"/>
<circle cx="564.875" cy="194.936" r="5.88314" stroke="white"/>
<circle cx="514.681" cy="203.35" r="3.19157" fill="white"/>
<circle cx="579.092" cy="336.816" r="3.19157" fill="white"/>
<circle cx="585.476" cy="324.05" r="3.19157" fill="white"/>
<circle cx="599.402" cy="330.433" r="3.19157" fill="white"/>
<circle cx="593.019" cy="343.199" r="3.19157" fill="white"/>
<path d="M672.228 342.038L664.104 362.639M664.104 362.639L621.163 346.391M664.104 362.639L657.141 366.701L619.132 353.354M621.163 346.391L626.966 327.531M621.163 346.391L601.143 338.847M619.132 353.354L601.143 340.878M619.132 353.354L612.169 359.737L597.662 346.391M602.884 373.084L606.656 368.732L579.673 346.391M545.436 319.698L561.394 331.303M523.965 334.785L532.96 351.903L534.831 357.126M520.194 335.365L525.996 354.515L527.187 358.867M510.329 362.639H521.354L529.768 413.414M529.768 413.414H510.039M529.768 413.414V460.707M529.768 460.707H509.168M529.768 460.707L532.38 463.028L536.442 460.707V413.414L541.084 409.642L527.187 358.867M558.492 408.191L552.399 406.16L534.831 357.126M527.187 358.867L534.831 357.126M566.616 337.396L579.673 312.444" stroke="white" stroke-width="2"/>
<path d="M672.228 342.038L664.104 362.639M664.104 362.639L621.163 346.391M664.104 362.639L657.141 366.701L619.132 353.354M621.163 346.391L626.966 327.531M621.163 346.391L601.143 338.847M619.132 353.354L601.143 340.878M619.132 353.354L612.169 359.737L597.662 346.391M602.884 373.084L606.656 368.732L579.673 346.391M545.436 319.698L561.394 331.303M523.965 334.785L532.96 351.903L534.831 357.126M520.194 335.365L525.996 354.515L527.187 358.867M510.329 362.639H521.354L529.768 413.414M529.768 413.414H510.039M529.768 413.414V460.707M529.768 460.707H509.168M529.768 460.707L532.38 463.028L536.442 460.707V413.414L541.084 409.642L527.187 358.867M558.492 408.191L552.399 406.16L534.831 357.126M527.187 358.867L534.831 357.126M566.616 337.396L579.673 312.444" stroke="white" stroke-width="2"/>
<path d="M672.228 342.038L664.104 362.639M664.104 362.639L621.163 346.391M664.104 362.639L657.141 366.701L619.132 353.354M621.163 346.391L626.966 327.531M621.163 346.391L601.143 338.847M619.132 353.354L601.143 340.878M619.132 353.354L612.169 359.737L597.662 346.391M602.884 373.084L606.656 368.732L579.673 346.391M545.436 319.698L561.394 331.303M523.965 334.785L532.96 351.903L534.831 357.126M520.194 335.365L525.996 354.515L527.187 358.867M510.329 362.639H521.354L529.768 413.414M529.768 413.414H510.039M529.768 413.414V460.707M529.768 460.707H509.168M529.768 460.707L532.38 463.028L536.442 460.707V413.414L541.084 409.642L527.187 358.867M558.492 408.191L552.399 406.16L534.831 357.126M527.187 358.867L534.831 357.126M566.616 337.396L579.673 312.444" stroke="white" stroke-width="2"/>
<path d="M479.224 398.724C480.696 399.105 481.928 400.672 482.786 403.513C483.634 406.321 484.065 410.213 484.059 414.929C484.048 424.353 482.298 436.953 478.803 450.486C475.307 464.019 470.738 475.89 466.184 484.141C463.906 488.27 461.644 491.467 459.543 493.514C457.416 495.584 455.579 496.358 454.107 495.978C452.635 495.597 451.404 494.031 450.546 491.19C449.698 488.382 449.268 484.49 449.273 479.774C449.285 470.35 451.035 457.75 454.53 444.217C458.025 430.684 462.595 418.812 467.148 410.561C469.427 406.432 471.688 403.236 473.79 401.19C475.916 399.12 477.752 398.344 479.224 398.724Z" stroke="white"/>
<path d="M426.811 367.44C427.911 368.49 428.222 370.459 427.585 373.358C426.956 376.223 425.434 379.83 423.129 383.945C418.523 392.167 410.85 402.313 401.199 412.423C391.547 422.533 381.768 430.668 373.769 435.65C369.766 438.144 366.233 439.832 363.4 440.593C360.534 441.364 358.553 441.144 357.453 440.094C356.354 439.044 356.042 437.075 356.679 434.177C357.308 431.312 358.831 427.704 361.136 423.59C365.742 415.368 373.414 405.222 383.065 395.112C392.717 385.002 402.496 376.867 410.496 371.884C414.499 369.391 418.031 367.703 420.864 366.942C423.73 366.171 425.711 366.39 426.811 367.44Z" stroke="white"/>
<path d="M399.883 316.728C400.287 318.194 399.542 320.043 397.506 322.203C395.494 324.338 392.335 326.651 388.244 328.996C380.068 333.683 368.273 338.446 354.798 342.161C341.324 345.876 328.755 347.831 319.332 347.996C314.617 348.078 310.718 347.711 307.897 346.909C305.042 346.097 303.455 344.891 303.051 343.425C302.647 341.959 303.392 340.111 305.427 337.951C307.439 335.817 310.598 333.504 314.69 331.158C322.866 326.471 334.661 321.708 348.135 317.993C361.609 314.278 374.179 312.323 383.602 312.158C388.317 312.076 392.215 312.443 395.037 313.245C397.891 314.057 399.478 315.262 399.883 316.728Z" stroke="white"/>
<path d="M399.953 257.653C399.556 259.121 397.975 260.335 395.124 261.161C392.307 261.977 388.411 262.364 383.695 262.305C374.272 262.187 361.692 260.295 348.199 256.648C334.707 253 322.888 248.297 314.689 243.651C310.586 241.325 307.414 239.028 305.392 236.904C303.346 234.754 302.592 232.909 302.989 231.441C303.386 229.973 304.967 228.759 307.817 227.934C310.634 227.118 314.531 226.731 319.247 226.79C328.67 226.907 341.249 228.799 354.741 232.447C368.234 236.094 380.054 240.798 388.253 245.444C392.356 247.769 395.527 250.066 397.549 252.191C399.595 254.34 400.35 256.185 399.953 257.653Z" stroke="white"/>
<path d="M429.224 208.006C428.162 209.095 426.19 209.385 423.298 208.718C420.44 208.058 416.848 206.498 412.759 204.15C404.586 199.457 394.521 191.678 384.514 181.92C374.506 172.163 366.475 162.298 361.578 154.247C359.127 150.218 357.476 146.667 356.744 143.826C356.004 140.952 356.245 138.973 357.307 137.885C358.368 136.796 360.34 136.506 363.231 137.173C366.089 137.833 369.681 139.393 373.771 141.741C381.943 146.434 392.008 154.213 402.015 163.971C412.022 173.728 420.054 183.593 424.952 191.645C427.403 195.674 429.053 199.224 429.785 202.065C430.525 204.939 430.285 206.917 429.224 208.006Z" stroke="white"/>
<path d="M477.788 180.233C476.304 180.565 474.493 179.731 472.435 177.592C470.402 175.479 468.245 172.211 466.102 168.01C461.819 159.615 457.637 147.601 454.584 133.962C451.531 120.322 450.191 107.673 450.486 98.2532C450.633 93.5395 451.19 89.6633 452.129 86.8844C453.078 84.0728 454.361 82.5468 455.845 82.2146C457.328 81.8827 459.139 82.7164 461.196 84.8544C463.23 86.9679 465.386 90.2368 467.53 94.4376C471.813 102.832 475.994 114.846 479.048 128.485C482.101 142.124 483.441 154.775 483.146 164.194C482.999 168.908 482.442 172.783 481.503 175.562C480.553 178.374 479.272 179.9 477.788 180.233Z" stroke="white"/>
<circle cx="489.675" cy="92.0569" r="3.77032" transform="rotate(167.381 489.675 92.0569)" stroke="white"/>
<circle cx="405.175" cy="140.267" r="3.77032" transform="rotate(167.381 405.175 140.267)" stroke="white"/>
<circle cx="408.656" cy="171.602" r="3.77032" transform="rotate(167.381 408.656 171.602)" stroke="white"/>
<circle cx="375" cy="194.233" r="3.77032" transform="rotate(167.381 375 194.233)" stroke="white"/>
<circle cx="296.437" cy="180.083" r="15.7297" transform="rotate(167.381 296.437 180.083)" stroke="white"/>
<mask id="path-43-inside-8_39_6" fill="white">
<path d="M275.127 108.92C281.679 110.639 289.45 111.119 296.732 110.254C304.014 109.388 310.21 107.249 313.956 104.305C317.703 101.362 318.693 97.8558 316.71 94.5586C314.726 91.2614 309.931 88.4431 303.38 86.7236L289.253 97.8218L275.127 108.92Z"/>
</mask>
<path d="M275.127 108.92C281.679 110.639 289.45 111.119 296.732 110.254C304.014 109.388 310.21 107.249 313.956 104.305C317.703 101.362 318.693 97.8558 316.71 94.5586C314.726 91.2614 309.931 88.4431 303.38 86.7236L289.253 97.8218L275.127 108.92Z" stroke="white" stroke-width="2" mask="url(#path-43-inside-8_39_6)"/>
<mask id="path-44-inside-9_39_6" fill="white">
<path d="M270.036 111.6C279.566 113.381 290.239 113.386 299.705 111.614C309.171 109.841 316.656 106.436 320.512 102.148C324.368 97.8592 324.281 93.0387 320.269 88.7465C316.256 84.4543 308.648 81.0421 299.117 79.2606L284.576 95.4302L270.036 111.6Z"/>
</mask>
<path d="M270.036 111.6C279.566 113.381 290.239 113.386 299.705 111.614C309.171 109.841 316.656 106.436 320.512 102.148C324.368 97.8592 324.281 93.0387 320.269 88.7465C316.256 84.4543 308.648 81.0421 299.117 79.2606L284.576 95.4302L270.036 111.6Z" stroke="white" stroke-width="2" mask="url(#path-44-inside-9_39_6)"/>
<mask id="path-45-inside-10_39_6" fill="white">
<path d="M278.388 110.422C289.081 111.873 300.572 111.351 310.335 108.972C320.098 106.593 327.333 102.55 330.447 97.7337C333.562 92.9174 332.301 87.7218 326.942 83.29C321.584 78.8581 312.566 75.553 301.874 74.1018L290.131 92.2617L278.388 110.422Z"/>
</mask>
<path d="M278.388 110.422C289.081 111.873 300.572 111.351 310.335 108.972C320.098 106.593 327.333 102.55 330.447 97.7337C333.562 92.9174 332.301 87.7218 326.942 83.29C321.584 78.8581 312.566 75.553 301.874 74.1018L290.131 92.2617L278.388 110.422Z" stroke="white" stroke-width="2" mask="url(#path-45-inside-10_39_6)"/>
<circle cx="261.203" cy="220.673" r="11.9791" transform="rotate(167.381 261.203 220.673)" stroke="white"/>
<circle cx="245.918" cy="162.272" r="7.44129" transform="rotate(167.381 245.918 162.272)" stroke="white"/>
<circle cx="245.918" cy="183.53" r="7.44129" transform="rotate(167.381 245.918 183.53)" stroke="white"/>
<circle cx="216.705" cy="188.839" r="6.78839" transform="rotate(167.381 216.705 188.839)" stroke="white"/>
<circle cx="361.653" cy="276.634" r="3.77032" transform="rotate(167.381 361.653 276.634)" stroke="white"/>
<circle cx="391.828" cy="347.429" r="3.77032" transform="rotate(167.381 391.828 347.429)" stroke="white"/>
<circle cx="428.386" cy="410.68" r="3.77032" transform="rotate(167.381 428.386 410.68)" stroke="white"/>
<circle cx="491.637" cy="450.139" r="3.77032" transform="rotate(167.381 491.637 450.139)" stroke="white"/>
<path d="M379.764 357.996L385.567 370.473M366.708 370.473L370.77 376.856M396.303 354.515L400.074 360.318M353.652 379.177L358.294 385.85M340.015 387.301L344.077 394.554M379.764 330.723H385.567L381.795 335.365M452.88 251.804L465.937 262.249L471.45 257.897L456.362 246.001M483.636 226.562L489.729 244.551L496.982 242.81L491.469 224.241M510.329 179.559H495.531V212.055L510.329 213.505M501.334 92.2257H507.137M501.334 108.474H507.137M502.785 125.302H507.137M501.334 141.84H507.137M501.334 158.959H507.137M268.06 145.612C273.862 145.612 308.196 145.612 324.637 145.612L359.745 184.491M344.657 103.251C349.532 103.251 370.673 103.251 380.635 103.251L386.728 112.246M229.471 255.866H331.021M564.005 367.571L624.645 451.132M568.067 429.081L621.743 389.332M510.329 287.782H707.045M510.329 287.782C498.53 291.554 474.583 299.272 473.19 299.968M510.329 287.782L473.19 274.725M615.65 139.229L561.684 213.505M570.968 148.804L621.453 186.812M480.154 313.314H534.701M489.729 333.915L483.636 351.323L491.469 354.515L496.982 335.365L489.729 333.915ZM456.362 330.723L471.45 318.247L462.455 304.03L444.466 311.283L456.362 330.723ZM441.565 283.72H462.455V293.004H441.565V283.72Z" stroke="white"/>
<circle cx="482.475" cy="267.472" r="5.88314" stroke="white"/>
<circle cx="495.241" cy="258.187" r="5.88314" stroke="white"/>
<circle cx="638.572" cy="179.268" r="5.88314" stroke="white"/>
<path d="M638.862 211.764C639.094 213.157 652.112 254.319 658.591 274.725M626.386 260.799L679.772 242.81M510.038 269.213H725.034" stroke="white"/>
<path d="M221.347 183.04L239.045 166.792M253.843 165.052L282.277 173.756M284.888 190.874L266.899 209.733M251.812 211.764L222.797 192.905M244.848 170.564V176.077M259.065 208.283L248.62 190.874M224.248 187.683L239.045 185.361" stroke="white"/>
<path d="M268.986 138.636V143H268.457V139.19H268.432L267.366 139.898V139.361L268.457 138.636H268.986ZM270.624 139.727L271.408 141.065L272.192 139.727H272.772L271.715 141.364L272.772 143H272.192L271.408 141.73L270.624 143H270.045L271.085 141.364L270.045 139.727H270.624ZM274.947 139.727V140.153H273.183V139.727H274.947ZM273.711 143V139.276C273.711 139.088 273.755 138.932 273.843 138.807C273.931 138.682 274.046 138.588 274.186 138.526C274.327 138.463 274.475 138.432 274.632 138.432C274.755 138.432 274.856 138.442 274.934 138.462C275.012 138.482 275.07 138.5 275.109 138.517L274.964 138.952C274.938 138.943 274.903 138.933 274.857 138.92C274.813 138.907 274.755 138.901 274.683 138.901C274.517 138.901 274.396 138.942 274.323 139.026C274.25 139.11 274.214 139.233 274.214 139.395V143H273.711ZM278.882 138.432L277.475 143.656H277.015L278.422 138.432H278.882ZM281.668 141.031V143H281.165V139.727H281.651V140.239H281.694C281.77 140.072 281.887 139.939 282.043 139.838C282.199 139.736 282.401 139.685 282.648 139.685C282.87 139.685 283.064 139.73 283.23 139.821C283.396 139.911 283.525 140.047 283.618 140.23C283.71 140.412 283.756 140.642 283.756 140.92V143H283.253V140.955C283.253 140.697 283.187 140.497 283.053 140.354C282.92 140.209 282.736 140.136 282.503 140.136C282.343 140.136 282.199 140.171 282.073 140.241C281.948 140.31 281.849 140.412 281.777 140.545C281.704 140.679 281.668 140.841 281.668 141.031ZM288.203 138.636V143H287.692L285.314 139.574H285.272V143H284.743V138.636H285.255L287.641 142.071H287.684V138.636H288.203ZM290.522 143.068C290.215 143.068 289.951 142.996 289.73 142.851C289.508 142.706 289.338 142.506 289.218 142.252C289.099 141.998 289.039 141.707 289.039 141.381C289.039 141.048 289.1 140.755 289.222 140.501C289.346 140.245 289.518 140.045 289.738 139.902C289.96 139.757 290.218 139.685 290.514 139.685C290.744 139.685 290.951 139.727 291.136 139.812C291.32 139.898 291.472 140.017 291.59 140.17C291.708 140.324 291.781 140.503 291.809 140.707H291.306C291.268 140.558 291.183 140.426 291.051 140.311C290.92 140.195 290.744 140.136 290.522 140.136C290.326 140.136 290.154 140.187 290.007 140.29C289.86 140.391 289.746 140.533 289.664 140.718C289.583 140.901 289.542 141.116 289.542 141.364C289.542 141.616 289.582 141.837 289.661 142.024C289.742 142.212 289.856 142.357 290.002 142.461C290.15 142.565 290.323 142.616 290.522 142.616C290.653 142.616 290.771 142.594 290.878 142.548C290.985 142.503 291.075 142.438 291.149 142.352C291.222 142.267 291.275 142.165 291.306 142.045H291.809C291.781 142.239 291.71 142.413 291.598 142.567C291.487 142.721 291.34 142.843 291.157 142.934C290.975 143.023 290.764 143.068 290.522 143.068Z" fill="white"/>
<path d="M635.778 434.46L635.327 434.588C635.298 434.513 635.256 434.44 635.201 434.369C635.147 434.296 635.073 434.237 634.979 434.19C634.886 434.143 634.766 434.119 634.619 434.119C634.419 434.119 634.252 434.165 634.119 434.258C633.987 434.349 633.92 434.464 633.92 434.605C633.92 434.73 633.966 434.829 634.057 434.901C634.148 434.974 634.29 435.034 634.483 435.082L634.969 435.202C635.261 435.273 635.479 435.381 635.623 435.528C635.766 435.673 635.838 435.859 635.838 436.088C635.838 436.276 635.784 436.443 635.676 436.591C635.57 436.739 635.42 436.855 635.229 436.94C635.037 437.026 634.814 437.068 634.56 437.068C634.226 437.068 633.95 436.996 633.731 436.851C633.512 436.706 633.374 436.494 633.315 436.216L633.793 436.097C633.838 436.273 633.924 436.405 634.05 436.493C634.178 436.581 634.345 436.625 634.551 436.625C634.786 436.625 634.972 436.575 635.109 436.476C635.249 436.375 635.318 436.254 635.318 436.114C635.318 436 635.278 435.905 635.199 435.828C635.119 435.75 634.997 435.692 634.832 435.653L634.287 435.526C633.987 435.455 633.767 435.344 633.626 435.195C633.487 435.045 633.418 434.857 633.418 434.631C633.418 434.446 633.469 434.283 633.573 434.141C633.678 433.999 633.821 433.887 634.001 433.806C634.183 433.725 634.389 433.685 634.619 433.685C634.943 433.685 635.197 433.756 635.382 433.898C635.568 434.04 635.7 434.227 635.778 434.46ZM636.595 437V433.727H637.098V437H636.595ZM636.851 433.182C636.753 433.182 636.668 433.148 636.597 433.082C636.528 433.015 636.493 432.935 636.493 432.841C636.493 432.747 636.528 432.667 636.597 432.6C636.668 432.533 636.753 432.5 636.851 432.5C636.949 432.5 637.032 432.533 637.102 432.6C637.173 432.667 637.209 432.747 637.209 432.841C637.209 432.935 637.173 433.015 637.102 433.082C637.032 433.148 636.949 433.182 636.851 433.182ZM638.522 435.031V437H638.019V433.727H638.505V434.239H638.547C638.624 434.072 638.74 433.939 638.897 433.838C639.053 433.736 639.255 433.685 639.502 433.685C639.723 433.685 639.917 433.73 640.083 433.821C640.25 433.911 640.379 434.047 640.471 434.23C640.564 434.412 640.61 434.642 640.61 434.92V437H640.107V434.955C640.107 434.697 640.04 434.497 639.907 434.354C639.773 434.209 639.59 434.136 639.357 434.136C639.196 434.136 639.053 434.171 638.926 434.241C638.801 434.31 638.703 434.412 638.63 434.545C638.558 434.679 638.522 434.841 638.522 435.031ZM641.708 435.159C641.708 434.622 641.777 434.129 641.916 433.678C642.057 433.227 642.257 432.811 642.517 432.432H642.96C642.858 432.572 642.762 432.746 642.673 432.952C642.585 433.156 642.507 433.381 642.441 433.627C642.374 433.871 642.321 434.124 642.283 434.386C642.246 434.647 642.227 434.905 642.227 435.159C642.227 435.497 642.26 435.84 642.325 436.188C642.391 436.536 642.479 436.859 642.59 437.158C642.7 437.456 642.824 437.699 642.96 437.886H642.517C642.257 437.507 642.057 437.092 641.916 436.642C641.777 436.19 641.708 435.696 641.708 435.159ZM645.16 433.727V434.153H643.396V433.727H645.16ZM643.924 437V433.276C643.924 433.088 643.968 432.932 644.056 432.807C644.144 432.682 644.259 432.588 644.399 432.526C644.54 432.463 644.688 432.432 644.844 432.432C644.968 432.432 645.069 432.442 645.147 432.462C645.225 432.482 645.283 432.5 645.322 432.517L645.177 432.952C645.151 432.943 645.116 432.933 645.07 432.92C645.026 432.907 644.968 432.901 644.896 432.901C644.729 432.901 644.609 432.942 644.536 433.026C644.463 433.11 644.427 433.233 644.427 433.395V437H643.924ZM646.24 433.727L647.024 435.065L647.808 433.727H648.387L647.33 435.364L648.387 437H647.808L647.024 435.73L646.24 437H645.66L646.7 435.364L645.66 433.727H646.24ZM650.179 435.159C650.179 435.696 650.108 436.19 649.968 436.642C649.828 437.092 649.629 437.507 649.369 437.886H648.926C649.028 437.746 649.123 437.572 649.211 437.366C649.301 437.162 649.379 436.937 649.446 436.693C649.512 436.447 649.564 436.194 649.601 435.933C649.64 435.67 649.659 435.412 649.659 435.159C649.659 434.821 649.626 434.478 649.561 434.13C649.495 433.782 649.407 433.459 649.297 433.161C649.186 432.862 649.062 432.619 648.926 432.432H649.369C649.629 432.811 649.828 433.227 649.968 433.678C650.108 434.129 650.179 434.622 650.179 435.159Z" fill="white"/>
<path d="M757.778 462.46L757.327 462.588C757.298 462.513 757.256 462.44 757.201 462.369C757.147 462.296 757.073 462.237 756.979 462.19C756.886 462.143 756.766 462.119 756.619 462.119C756.419 462.119 756.252 462.165 756.119 462.258C755.987 462.349 755.92 462.464 755.92 462.605C755.92 462.73 755.966 462.829 756.057 462.901C756.148 462.974 756.29 463.034 756.483 463.082L756.969 463.202C757.261 463.273 757.479 463.381 757.623 463.528C757.766 463.673 757.838 463.859 757.838 464.088C757.838 464.276 757.784 464.443 757.676 464.591C757.57 464.739 757.42 464.855 757.229 464.94C757.037 465.026 756.814 465.068 756.56 465.068C756.226 465.068 755.95 464.996 755.731 464.851C755.512 464.706 755.374 464.494 755.315 464.216L755.793 464.097C755.838 464.273 755.924 464.405 756.05 464.493C756.178 464.581 756.345 464.625 756.551 464.625C756.786 464.625 756.972 464.575 757.109 464.476C757.249 464.375 757.318 464.254 757.318 464.114C757.318 464 757.278 463.905 757.199 463.828C757.119 463.75 756.997 463.692 756.832 463.653L756.287 463.526C755.987 463.455 755.767 463.344 755.626 463.195C755.487 463.045 755.418 462.857 755.418 462.631C755.418 462.446 755.469 462.283 755.573 462.141C755.678 461.999 755.821 461.887 756.001 461.806C756.183 461.725 756.389 461.685 756.619 461.685C756.943 461.685 757.197 461.756 757.382 461.898C757.568 462.04 757.7 462.227 757.778 462.46ZM758.595 465V461.727H759.098V465H758.595ZM758.851 461.182C758.753 461.182 758.668 461.148 758.597 461.082C758.528 461.015 758.493 460.935 758.493 460.841C758.493 460.747 758.528 460.667 758.597 460.6C758.668 460.533 758.753 460.5 758.851 460.5C758.949 460.5 759.032 460.533 759.102 460.6C759.173 460.667 759.209 460.747 759.209 460.841C759.209 460.935 759.173 461.015 759.102 461.082C759.032 461.148 758.949 461.182 758.851 461.182ZM760.522 463.031V465H760.019V461.727H760.505V462.239H760.547C760.624 462.072 760.74 461.939 760.897 461.838C761.053 461.736 761.255 461.685 761.502 461.685C761.723 461.685 761.917 461.73 762.083 461.821C762.25 461.911 762.379 462.047 762.471 462.23C762.564 462.412 762.61 462.642 762.61 462.92V465H762.107V462.955C762.107 462.697 762.04 462.497 761.907 462.354C761.773 462.209 761.59 462.136 761.357 462.136C761.196 462.136 761.053 462.171 760.926 462.241C760.801 462.31 760.703 462.412 760.63 462.545C760.558 462.679 760.522 462.841 760.522 463.031ZM763.708 463.159C763.708 462.622 763.777 462.129 763.916 461.678C764.057 461.227 764.257 460.811 764.517 460.432H764.96C764.858 460.572 764.762 460.746 764.673 460.952C764.585 461.156 764.507 461.381 764.441 461.627C764.374 461.871 764.321 462.124 764.283 462.386C764.246 462.647 764.227 462.905 764.227 463.159C764.227 463.497 764.26 463.84 764.325 464.188C764.391 464.536 764.479 464.859 764.59 465.158C764.7 465.456 764.824 465.699 764.96 465.886H764.517C764.257 465.507 764.057 465.092 763.916 464.642C763.777 464.19 763.708 463.696 763.708 463.159ZM767.16 461.727V462.153H765.396V461.727H767.16ZM765.924 465V461.276C765.924 461.088 765.968 460.932 766.056 460.807C766.144 460.682 766.259 460.588 766.399 460.526C766.54 460.463 766.688 460.432 766.844 460.432C766.968 460.432 767.069 460.442 767.147 460.462C767.225 460.482 767.283 460.5 767.322 460.517L767.177 460.952C767.151 460.943 767.116 460.933 767.07 460.92C767.026 460.907 766.968 460.901 766.896 460.901C766.729 460.901 766.609 460.942 766.536 461.026C766.463 461.11 766.427 461.233 766.427 461.395V465H765.924ZM768.24 461.727L769.024 463.065L769.808 461.727H770.387L769.33 463.364L770.387 465H769.808L769.024 463.73L768.24 465H767.66L768.7 463.364L767.66 461.727H768.24ZM772.179 463.159C772.179 463.696 772.108 464.19 771.968 464.642C771.828 465.092 771.629 465.507 771.369 465.886H770.926C771.028 465.746 771.123 465.572 771.211 465.366C771.301 465.162 771.379 464.937 771.446 464.693C771.512 464.447 771.564 464.194 771.601 463.933C771.64 463.67 771.659 463.412 771.659 463.159C771.659 462.821 771.626 462.478 771.561 462.13C771.495 461.782 771.407 461.459 771.297 461.161C771.186 460.862 771.062 460.619 770.926 460.432H771.369C771.629 460.811 771.828 461.227 771.968 461.678C772.108 462.129 772.179 462.622 772.179 463.159ZM775.801 463.091L775.835 462.153L775.043 462.656L774.838 462.298L775.673 461.864L774.838 461.429L775.043 461.071L775.835 461.574L775.801 460.636H776.21L776.176 461.574L776.969 461.071L777.173 461.429L776.338 461.864L777.173 462.298L776.969 462.656L776.176 462.153L776.21 463.091H775.801ZM779.722 465V460.636H782.338V461.105H780.25V462.58H782.142V463.048H780.25V465H779.722ZM783.14 465V461.727H783.626V462.239H783.668C783.737 462.064 783.847 461.928 783.999 461.832C784.151 461.734 784.333 461.685 784.546 461.685C784.762 461.685 784.942 461.734 785.085 461.832C785.23 461.928 785.343 462.064 785.424 462.239H785.458C785.542 462.07 785.668 461.935 785.835 461.836C786.003 461.735 786.204 461.685 786.438 461.685C786.731 461.685 786.97 461.776 787.156 461.96C787.342 462.141 787.435 462.425 787.435 462.81V465H786.933V462.81C786.933 462.568 786.866 462.396 786.734 462.292C786.602 462.188 786.447 462.136 786.268 462.136C786.038 462.136 785.859 462.206 785.733 462.345C785.607 462.483 785.543 462.658 785.543 462.869V465H785.032V462.759C785.032 462.572 784.972 462.423 784.851 462.309C784.73 462.194 784.575 462.136 784.384 462.136C784.254 462.136 784.131 462.171 784.018 462.241C783.906 462.31 783.815 462.407 783.745 462.531C783.677 462.653 783.643 462.794 783.643 462.955V465H783.14Z" fill="white"/>
<path d="M345.918 98.7273V99.1534H344.153V98.7273H345.918ZM344.682 102V98.2756C344.682 98.0881 344.726 97.9318 344.814 97.8068C344.902 97.6818 345.016 97.5881 345.157 97.5256C345.298 97.4631 345.446 97.4318 345.602 97.4318C345.726 97.4318 345.827 97.4418 345.905 97.4616C345.983 97.4815 346.041 97.5 346.08 97.517L345.935 97.9517C345.909 97.9432 345.874 97.9325 345.828 97.9197C345.784 97.907 345.726 97.9006 345.653 97.9006C345.487 97.9006 345.367 97.9425 345.293 98.0263C345.221 98.1101 345.185 98.233 345.185 98.3949V102H344.682ZM347.125 100.031V102H346.622V98.7273H347.108V99.2386H347.151C347.227 99.0724 347.344 98.9389 347.5 98.8381C347.656 98.7358 347.858 98.6847 348.105 98.6847C348.327 98.6847 348.521 98.7301 348.687 98.821C348.853 98.9105 348.982 99.0469 349.075 99.2301C349.167 99.4119 349.213 99.642 349.213 99.9205V102H348.71V99.9545C348.71 99.6974 348.644 99.4972 348.51 99.3537C348.377 99.2088 348.193 99.1364 347.96 99.1364C347.8 99.1364 347.656 99.1712 347.53 99.2408C347.405 99.3104 347.306 99.4119 347.234 99.5455C347.161 99.679 347.125 99.8409 347.125 100.031ZM352.655 100.091L352.689 99.1534L351.896 99.6562L351.692 99.2983L352.527 98.8636L351.692 98.429L351.896 98.071L352.689 98.5739L352.655 97.6364H353.064L353.03 98.5739L353.822 98.071L354.027 98.429L353.192 98.8636L354.027 99.2983L353.822 99.6562L353.03 99.1534L353.064 100.091H352.655ZM357.828 103.295C357.585 103.295 357.376 103.264 357.202 103.202C357.027 103.141 356.881 103.06 356.765 102.959C356.65 102.859 356.558 102.753 356.49 102.639L356.891 102.358C356.936 102.418 356.994 102.486 357.063 102.562C357.133 102.641 357.228 102.708 357.349 102.765C357.471 102.823 357.631 102.852 357.828 102.852C358.092 102.852 358.31 102.788 358.482 102.661C358.654 102.533 358.74 102.332 358.74 102.06V101.395H358.697C358.661 101.455 358.608 101.528 358.54 101.616C358.473 101.703 358.376 101.781 358.25 101.849C358.125 101.915 357.956 101.949 357.743 101.949C357.479 101.949 357.241 101.886 357.031 101.761C356.822 101.636 356.657 101.455 356.535 101.216C356.414 100.977 356.354 100.687 356.354 100.347C356.354 100.011 356.413 99.7195 356.531 99.4709C356.648 99.2209 356.813 99.0277 357.023 98.8913C357.233 98.7536 357.476 98.6847 357.751 98.6847C357.964 98.6847 358.134 98.7202 358.259 98.7912C358.385 98.8608 358.482 98.9403 358.548 99.0298C358.616 99.1179 358.669 99.1903 358.706 99.2472H358.757V98.7273H359.243V102.094C359.243 102.375 359.179 102.604 359.051 102.78C358.925 102.957 358.754 103.087 358.54 103.17C358.327 103.254 358.089 103.295 357.828 103.295ZM357.811 101.497C358.013 101.497 358.183 101.451 358.322 101.359C358.462 101.266 358.567 101.134 358.64 100.96C358.712 100.787 358.749 100.58 358.749 100.338C358.749 100.102 358.713 99.8942 358.642 99.7138C358.571 99.5334 358.466 99.392 358.327 99.2898C358.188 99.1875 358.016 99.1364 357.811 99.1364C357.598 99.1364 357.42 99.1903 357.278 99.2983C357.138 99.4062 357.032 99.5511 356.961 99.733C356.891 99.9148 356.857 100.116 356.857 100.338C356.857 100.565 356.892 100.766 356.963 100.941C357.036 101.114 357.142 101.251 357.283 101.35C357.425 101.448 357.601 101.497 357.811 101.497ZM363.393 97.4318L361.987 102.656H361.527L362.933 97.4318H363.393ZM365.745 102V97.6364H368.362V98.1051H366.274V99.5795H368.166V100.048H366.274V102H365.745Z" fill="white"/>
<path d="M289.918 179.727V180.153H288.153V179.727H289.918ZM288.682 183V179.276C288.682 179.088 288.726 178.932 288.814 178.807C288.902 178.682 289.016 178.588 289.157 178.526C289.298 178.463 289.446 178.432 289.602 178.432C289.726 178.432 289.827 178.442 289.905 178.462C289.983 178.482 290.041 178.5 290.08 178.517L289.935 178.952C289.909 178.943 289.874 178.933 289.828 178.92C289.784 178.907 289.726 178.901 289.653 178.901C289.487 178.901 289.367 178.942 289.293 179.026C289.221 179.11 289.185 179.233 289.185 179.395V183H288.682ZM291.125 181.031V183H290.622V179.727H291.108V180.239H291.151C291.227 180.072 291.344 179.939 291.5 179.838C291.656 179.736 291.858 179.685 292.105 179.685C292.327 179.685 292.521 179.73 292.687 179.821C292.853 179.911 292.982 180.047 293.075 180.23C293.167 180.412 293.213 180.642 293.213 180.92V183H292.71V180.955C292.71 180.697 292.644 180.497 292.51 180.354C292.377 180.209 292.193 180.136 291.96 180.136C291.8 180.136 291.656 180.171 291.53 180.241C291.405 180.31 291.306 180.412 291.234 180.545C291.161 180.679 291.125 180.841 291.125 181.031ZM294.311 181.159C294.311 180.622 294.381 180.129 294.52 179.678C294.661 179.227 294.861 178.811 295.121 178.432H295.564C295.462 178.572 295.366 178.746 295.276 178.952C295.188 179.156 295.111 179.381 295.044 179.627C294.977 179.871 294.925 180.124 294.886 180.386C294.849 180.647 294.831 180.905 294.831 181.159C294.831 181.497 294.864 181.84 294.929 182.188C294.994 182.536 295.082 182.859 295.193 183.158C295.304 183.456 295.428 183.699 295.564 183.886H295.121C294.861 183.507 294.661 183.092 294.52 182.642C294.381 182.19 294.311 181.696 294.311 181.159ZM296.681 179.727L297.465 181.065L298.249 179.727H298.829L297.772 181.364L298.829 183H298.249L297.465 181.73L296.681 183H296.101L297.141 181.364L296.101 179.727H296.681ZM299.87 184.227C299.785 184.227 299.709 184.22 299.642 184.206C299.575 184.193 299.529 184.18 299.504 184.168L299.631 183.724C299.754 183.756 299.862 183.767 299.955 183.759C300.049 183.75 300.132 183.708 300.205 183.633C300.278 183.559 300.346 183.439 300.407 183.273L300.501 183.017L299.29 179.727H299.836L300.739 182.335H300.773L301.677 179.727H302.222L300.833 183.477C300.771 183.646 300.693 183.786 300.601 183.897C300.509 184.009 300.401 184.092 300.279 184.146C300.158 184.2 300.022 184.227 299.87 184.227ZM303.96 181.159C303.96 181.696 303.89 182.19 303.749 182.642C303.61 183.092 303.41 183.507 303.15 183.886H302.707C302.809 183.746 302.904 183.572 302.993 183.366C303.082 183.162 303.16 182.937 303.227 182.693C303.294 182.447 303.346 182.194 303.382 181.933C303.421 181.67 303.44 181.412 303.44 181.159C303.44 180.821 303.407 180.478 303.342 180.13C303.277 179.782 303.189 179.459 303.078 179.161C302.967 178.862 302.843 178.619 302.707 178.432H303.15C303.41 178.811 303.61 179.227 303.749 179.678C303.89 180.129 303.96 180.622 303.96 181.159Z" fill="white"/>
<path d="M242.639 183.159C242.639 182.622 242.709 182.129 242.848 181.678C242.989 181.227 243.189 180.811 243.449 180.432H243.892C243.79 180.572 243.694 180.746 243.604 180.952C243.516 181.156 243.439 181.381 243.372 181.627C243.305 181.871 243.253 182.124 243.214 182.386C243.178 182.647 243.159 182.905 243.159 183.159C243.159 183.497 243.192 183.84 243.257 184.188C243.322 184.536 243.411 184.859 243.521 185.158C243.632 185.456 243.756 185.699 243.892 185.886H243.449C243.189 185.507 242.989 185.092 242.848 184.642C242.709 184.19 242.639 183.696 242.639 183.159ZM244.958 186.227C244.873 186.227 244.797 186.22 244.73 186.206C244.663 186.193 244.617 186.18 244.591 186.168L244.719 185.724C244.841 185.756 244.949 185.767 245.043 185.759C245.137 185.75 245.22 185.708 245.292 185.633C245.366 185.559 245.434 185.439 245.495 185.273L245.589 185.017L244.378 181.727H244.924L245.827 184.335H245.861L246.765 181.727H247.31L245.921 185.477C245.858 185.646 245.781 185.786 245.689 185.897C245.596 186.009 245.489 186.092 245.367 186.146C245.246 186.2 245.11 186.227 244.958 186.227ZM249.048 183.159C249.048 183.696 248.977 184.19 248.837 184.642C248.698 185.092 248.498 185.507 248.238 185.886H247.795C247.897 185.746 247.992 185.572 248.08 185.366C248.17 185.162 248.248 184.937 248.315 184.693C248.382 184.447 248.433 184.194 248.47 183.933C248.509 183.67 248.528 183.412 248.528 183.159C248.528 182.821 248.495 182.478 248.43 182.13C248.365 181.782 248.276 181.459 248.166 181.161C248.055 180.862 247.931 180.619 247.795 180.432H248.238C248.498 180.811 248.698 181.227 248.837 181.678C248.977 182.129 249.048 182.622 249.048 183.159Z" fill="white"/>
<path d="M242.639 162.159C242.639 161.622 242.709 161.129 242.848 160.678C242.989 160.227 243.189 159.811 243.449 159.432H243.892C243.79 159.572 243.694 159.746 243.604 159.952C243.516 160.156 243.439 160.381 243.372 160.627C243.305 160.871 243.253 161.124 243.214 161.386C243.178 161.647 243.159 161.905 243.159 162.159C243.159 162.497 243.192 162.84 243.257 163.188C243.322 163.536 243.411 163.859 243.521 164.158C243.632 164.456 243.756 164.699 243.892 164.886H243.449C243.189 164.507 242.989 164.092 242.848 163.642C242.709 163.19 242.639 162.696 242.639 162.159ZM244.668 162.705C244.664 162.469 244.702 162.279 244.783 162.136C244.864 161.992 244.969 161.888 245.099 161.822C245.229 161.757 245.367 161.724 245.512 161.724C245.657 161.724 245.789 161.756 245.908 161.82C246.029 161.883 246.167 161.982 246.322 162.116C246.427 162.207 246.51 162.271 246.573 162.308C246.637 162.345 246.706 162.364 246.782 162.364C246.904 162.364 247.001 162.32 247.072 162.232C247.143 162.142 247.177 162.013 247.174 161.844H247.634C247.638 162.08 247.6 162.269 247.519 162.413C247.439 162.556 247.334 162.661 247.204 162.726C247.073 162.791 246.935 162.824 246.79 162.824C246.645 162.824 246.513 162.793 246.394 162.73C246.275 162.666 246.137 162.567 245.981 162.432C245.877 162.341 245.793 162.277 245.729 162.24C245.665 162.203 245.596 162.185 245.52 162.185C245.405 162.185 245.31 162.225 245.235 162.306C245.161 162.386 245.126 162.518 245.128 162.705H244.668ZM249.663 162.159C249.663 162.696 249.593 163.19 249.452 163.642C249.313 164.092 249.113 164.507 248.853 164.886H248.41C248.512 164.746 248.608 164.572 248.696 164.366C248.785 164.162 248.863 163.937 248.93 163.693C248.997 163.447 249.049 163.194 249.086 162.933C249.124 162.67 249.143 162.412 249.143 162.159C249.143 161.821 249.11 161.478 249.045 161.13C248.98 160.782 248.892 160.459 248.781 160.161C248.67 159.862 248.547 159.619 248.41 159.432H248.853C249.113 159.811 249.313 160.227 249.452 160.678C249.593 161.129 249.663 161.622 249.663 162.159Z" fill="white"/>
<path d="M213.639 190.159C213.639 189.622 213.709 189.129 213.848 188.678C213.989 188.227 214.189 187.811 214.449 187.432H214.892C214.79 187.572 214.694 187.746 214.604 187.952C214.516 188.156 214.439 188.381 214.372 188.627C214.305 188.871 214.253 189.124 214.214 189.386C214.178 189.647 214.159 189.905 214.159 190.159C214.159 190.497 214.192 190.84 214.257 191.188C214.322 191.536 214.411 191.859 214.521 192.158C214.632 192.456 214.756 192.699 214.892 192.886H214.449C214.189 192.507 213.989 192.092 213.848 191.642C213.709 191.19 213.639 190.696 213.639 190.159ZM215.668 190.705C215.664 190.469 215.702 190.279 215.783 190.136C215.864 189.992 215.969 189.888 216.099 189.822C216.229 189.757 216.367 189.724 216.512 189.724C216.657 189.724 216.789 189.756 216.908 189.82C217.029 189.883 217.167 189.982 217.322 190.116C217.427 190.207 217.51 190.271 217.573 190.308C217.637 190.345 217.706 190.364 217.782 190.364C217.904 190.364 218.001 190.32 218.072 190.232C218.143 190.142 218.177 190.013 218.174 189.844H218.634C218.638 190.08 218.6 190.269 218.519 190.413C218.439 190.556 218.334 190.661 218.204 190.726C218.073 190.791 217.935 190.824 217.79 190.824C217.645 190.824 217.513 190.793 217.394 190.73C217.275 190.666 217.137 190.567 216.981 190.432C216.877 190.341 216.793 190.277 216.729 190.24C216.665 190.203 216.596 190.185 216.52 190.185C216.405 190.185 216.31 190.225 216.235 190.306C216.161 190.386 216.126 190.518 216.128 190.705H215.668ZM220.663 190.159C220.663 190.696 220.593 191.19 220.452 191.642C220.313 192.092 220.113 192.507 219.853 192.886H219.41C219.512 192.746 219.608 192.572 219.696 192.366C219.785 192.162 219.863 191.937 219.93 191.693C219.997 191.447 220.049 191.194 220.086 190.933C220.124 190.67 220.143 190.412 220.143 190.159C220.143 189.821 220.11 189.478 220.045 189.13C219.98 188.782 219.892 188.459 219.781 188.161C219.67 187.862 219.547 187.619 219.41 187.432H219.853C220.113 187.811 220.313 188.227 220.452 188.678C220.593 189.129 220.663 189.622 220.663 190.159Z" fill="white"/>
<path d="M255.918 219.727V220.153H254.153V219.727H255.918ZM254.682 223V219.276C254.682 219.088 254.726 218.932 254.814 218.807C254.902 218.682 255.016 218.588 255.157 218.526C255.298 218.463 255.446 218.432 255.602 218.432C255.726 218.432 255.827 218.442 255.905 218.462C255.983 218.482 256.041 218.5 256.08 218.517L255.935 218.952C255.909 218.943 255.874 218.933 255.828 218.92C255.784 218.907 255.726 218.901 255.653 218.901C255.487 218.901 255.367 218.942 255.293 219.026C255.221 219.11 255.185 219.233 255.185 219.395V223H254.682ZM257.125 221.031V223H256.622V219.727H257.108V220.239H257.151C257.227 220.072 257.344 219.939 257.5 219.838C257.656 219.736 257.858 219.685 258.105 219.685C258.327 219.685 258.521 219.73 258.687 219.821C258.853 219.911 258.982 220.047 259.075 220.23C259.167 220.412 259.213 220.642 259.213 220.92V223H258.71V220.955C258.71 220.697 258.644 220.497 258.51 220.354C258.377 220.209 258.193 220.136 257.96 220.136C257.8 220.136 257.656 220.171 257.53 220.241C257.405 220.31 257.306 220.412 257.234 220.545C257.161 220.679 257.125 220.841 257.125 221.031ZM260.311 221.159C260.311 220.622 260.381 220.129 260.52 219.678C260.661 219.227 260.861 218.811 261.121 218.432H261.564C261.462 218.572 261.366 218.746 261.276 218.952C261.188 219.156 261.111 219.381 261.044 219.627C260.977 219.871 260.925 220.124 260.886 220.386C260.849 220.647 260.831 220.905 260.831 221.159C260.831 221.497 260.864 221.84 260.929 222.188C260.994 222.536 261.082 222.859 261.193 223.158C261.304 223.456 261.428 223.699 261.564 223.886H261.121C260.861 223.507 260.661 223.092 260.52 222.642C260.381 222.19 260.311 221.696 260.311 221.159ZM262.212 223V222.616L264.07 220.23V220.196H262.272V219.727H264.718V220.128L262.911 222.497V222.531H264.778V223H262.212ZM265.927 219.727L266.711 221.065L267.495 219.727H268.075L267.018 221.364L268.075 223H267.495L266.711 221.73L265.927 223H265.347L266.387 221.364L265.347 219.727H265.927ZM269.866 221.159C269.866 221.696 269.796 222.19 269.655 222.642C269.516 223.092 269.316 223.507 269.056 223.886H268.613C268.716 223.746 268.811 223.572 268.899 223.366C268.988 223.162 269.066 222.937 269.133 222.693C269.2 222.447 269.252 222.194 269.289 221.933C269.327 221.67 269.346 221.412 269.346 221.159C269.346 220.821 269.314 220.478 269.248 220.13C269.183 219.782 269.095 219.459 268.984 219.161C268.873 218.862 268.75 218.619 268.613 218.432H269.056C269.316 218.811 269.516 219.227 269.655 219.678C269.796 220.129 269.866 220.622 269.866 221.159Z" fill="white"/>
<path d="M220.423 225.077C220.216 225.077 220.028 225.038 219.859 224.96C219.69 224.88 219.555 224.766 219.456 224.616C219.357 224.466 219.307 224.284 219.307 224.071C219.307 223.884 219.344 223.732 219.418 223.615C219.491 223.497 219.59 223.405 219.714 223.338C219.837 223.271 219.974 223.222 220.123 223.189C220.273 223.155 220.425 223.128 220.577 223.108C220.776 223.082 220.937 223.063 221.06 223.05C221.185 223.036 221.276 223.013 221.333 222.98C221.391 222.947 221.42 222.891 221.42 222.81V222.793C221.42 222.582 221.363 222.419 221.248 222.303C221.134 222.186 220.962 222.128 220.73 222.128C220.49 222.128 220.302 222.18 220.165 222.286C220.029 222.391 219.933 222.503 219.878 222.622L219.401 222.452C219.486 222.253 219.599 222.098 219.741 221.987C219.885 221.875 220.041 221.797 220.21 221.753C220.381 221.707 220.548 221.685 220.713 221.685C220.818 221.685 220.939 221.697 221.075 221.723C221.213 221.747 221.346 221.798 221.474 221.874C221.603 221.951 221.71 222.067 221.795 222.222C221.881 222.376 221.923 222.584 221.923 222.844V225H221.42V224.557H221.395C221.361 224.628 221.304 224.704 221.224 224.785C221.145 224.866 221.039 224.935 220.907 224.991C220.775 225.048 220.614 225.077 220.423 225.077ZM220.5 224.625C220.699 224.625 220.866 224.586 221.003 224.508C221.141 224.43 221.244 224.329 221.314 224.205C221.385 224.082 221.42 223.952 221.42 223.815V223.355C221.399 223.381 221.352 223.404 221.28 223.425C221.209 223.445 221.126 223.463 221.033 223.479C220.94 223.493 220.85 223.506 220.762 223.517C220.675 223.527 220.605 223.536 220.551 223.543C220.42 223.56 220.298 223.587 220.185 223.626C220.072 223.663 219.982 223.719 219.912 223.794C219.844 223.868 219.81 223.969 219.81 224.097C219.81 224.271 219.874 224.403 220.004 224.493C220.134 224.581 220.3 224.625 220.5 224.625ZM223.02 223.159C223.02 222.622 223.09 222.129 223.229 221.678C223.369 221.227 223.57 220.811 223.83 220.432H224.273C224.171 220.572 224.075 220.746 223.985 220.952C223.897 221.156 223.82 221.381 223.753 221.627C223.686 221.871 223.634 222.124 223.595 222.386C223.558 222.647 223.54 222.905 223.54 223.159C223.54 223.497 223.573 223.84 223.638 224.188C223.703 224.536 223.791 224.859 223.902 225.158C224.013 225.456 224.137 225.699 224.273 225.886H223.83C223.57 225.507 223.369 225.092 223.229 224.642C223.09 224.19 223.02 223.696 223.02 223.159ZM225.083 225V220.636H227.7V221.105H225.612V222.58H227.504V223.048H225.612V225H225.083ZM228.501 225V221.727H228.987V222.239H229.03C229.098 222.064 229.208 221.928 229.36 221.832C229.512 221.734 229.694 221.685 229.907 221.685C230.123 221.685 230.303 221.734 230.447 221.832C230.591 221.928 230.704 222.064 230.785 222.239H230.819C230.903 222.07 231.029 221.935 231.197 221.836C231.364 221.735 231.565 221.685 231.8 221.685C232.092 221.685 232.331 221.776 232.518 221.96C232.704 222.141 232.797 222.425 232.797 222.81V225H232.294V222.81C232.294 222.568 232.228 222.396 232.096 222.292C231.964 222.188 231.808 222.136 231.629 222.136C231.399 222.136 231.221 222.206 231.094 222.345C230.968 222.483 230.905 222.658 230.905 222.869V225H230.393V222.759C230.393 222.572 230.333 222.423 230.212 222.309C230.091 222.194 229.936 222.136 229.746 222.136C229.615 222.136 229.493 222.171 229.379 222.241C229.267 222.31 229.176 222.407 229.106 222.531C229.038 222.653 229.004 222.794 229.004 222.955V225H228.501ZM235.259 220.432L233.852 225.656H233.392L234.798 220.432H235.259ZM237.176 226.295C236.933 226.295 236.724 226.264 236.549 226.202C236.375 226.141 236.229 226.06 236.113 225.959C235.998 225.859 235.906 225.753 235.838 225.639L236.238 225.358C236.284 225.418 236.341 225.486 236.411 225.562C236.48 225.641 236.576 225.708 236.696 225.765C236.819 225.823 236.978 225.852 237.176 225.852C237.44 225.852 237.658 225.788 237.83 225.661C238.002 225.533 238.088 225.332 238.088 225.06V224.395H238.045C238.008 224.455 237.956 224.528 237.887 224.616C237.821 224.703 237.724 224.781 237.598 224.849C237.473 224.915 237.304 224.949 237.091 224.949C236.826 224.949 236.589 224.886 236.379 224.761C236.17 224.636 236.005 224.455 235.882 224.216C235.762 223.977 235.701 223.687 235.701 223.347C235.701 223.011 235.76 222.719 235.878 222.471C235.996 222.221 236.16 222.028 236.37 221.891C236.581 221.754 236.824 221.685 237.099 221.685C237.312 221.685 237.481 221.72 237.606 221.791C237.733 221.861 237.829 221.94 237.896 222.03C237.964 222.118 238.017 222.19 238.054 222.247H238.105V221.727H238.591V225.094C238.591 225.375 238.527 225.604 238.399 225.78C238.272 225.957 238.102 226.087 237.887 226.17C237.674 226.254 237.437 226.295 237.176 226.295ZM237.159 224.497C237.36 224.497 237.531 224.451 237.67 224.359C237.809 224.266 237.915 224.134 237.988 223.96C238.06 223.787 238.096 223.58 238.096 223.338C238.096 223.102 238.061 222.894 237.99 222.714C237.919 222.533 237.814 222.392 237.674 222.29C237.535 222.187 237.363 222.136 237.159 222.136C236.946 222.136 236.768 222.19 236.626 222.298C236.485 222.406 236.38 222.551 236.309 222.733C236.239 222.915 236.204 223.116 236.204 223.338C236.204 223.565 236.24 223.766 236.311 223.941C236.383 224.114 236.49 224.251 236.63 224.35C236.772 224.448 236.949 224.497 237.159 224.497ZM240.585 223.159C240.585 223.696 240.515 224.19 240.374 224.642C240.235 225.092 240.035 225.507 239.775 225.886H239.332C239.434 225.746 239.529 225.572 239.618 225.366C239.707 225.162 239.785 224.937 239.852 224.693C239.919 224.447 239.971 224.194 240.007 223.933C240.046 223.67 240.065 223.412 240.065 223.159C240.065 222.821 240.032 222.478 239.967 222.13C239.902 221.782 239.814 221.459 239.703 221.161C239.592 220.862 239.468 220.619 239.332 220.432H239.775C240.035 220.811 240.235 221.227 240.374 221.678C240.515 222.129 240.585 222.622 240.585 223.159Z" fill="white"/>
<path d="M691.378 409.642V494.654M704.724 411.092C693.119 427.921 693.989 478.986 704.724 494.654M709.657 412.833C698.594 427.631 698.074 474.634 710.527 494.654M714.589 416.315C703.192 429.952 702.932 472.022 715.46 491.462M720.102 420.087C707.284 435.464 707.377 467.96 721.262 487.98M723.874 426.18C712.197 437.205 713.037 469.701 725.324 483.628" stroke="white"/>
<path d="M691.088 410.222V495.234M677.741 411.673C689.347 428.501 688.476 479.566 677.741 495.234M672.809 413.414C683.871 428.211 684.391 475.214 671.938 495.234M667.876 416.895C679.273 430.532 679.533 472.603 667.006 492.042M662.363 420.667C675.181 436.045 675.088 468.541 661.203 488.561M658.592 426.76C670.268 437.786 669.429 470.282 657.141 484.208" stroke="white"/>
<path d="M731.998 441.477C739.161 441.477 744.844 446.513 744.844 452.583C744.844 458.653 739.161 463.688 731.998 463.688C724.835 463.688 719.151 458.653 719.151 452.583C719.151 446.513 724.835 441.477 731.998 441.477Z" stroke="white"/>
<path d="M728.806 442.638C734.125 442.638 738.461 447.077 738.461 452.583C738.461 458.089 734.125 462.528 728.806 462.528C723.487 462.528 719.151 458.089 719.151 452.583C719.151 447.077 723.487 442.638 728.806 442.638Z" stroke="white"/>
<path d="M726.485 444.959C730.518 444.959 733.819 448.355 733.819 452.583C733.819 456.811 730.518 460.207 726.485 460.207C722.452 460.207 719.151 456.811 719.151 452.583C719.151 448.355 722.452 444.959 726.485 444.959Z" stroke="white"/>
<path d="M651.918 441.477C644.755 441.477 639.072 446.513 639.071 452.583C639.071 458.653 644.755 463.688 651.918 463.688C659.081 463.688 664.765 458.653 664.765 452.583C664.765 446.513 659.081 441.477 651.918 441.477Z" stroke="white"/>
<path d="M655.109 442.638C649.791 442.638 645.455 447.077 645.455 452.583C645.455 458.089 649.791 462.528 655.109 462.528C660.429 462.528 664.765 458.089 664.765 452.583C664.765 447.077 660.429 442.638 655.109 442.638Z" stroke="white"/>
<path d="M657.431 444.959C653.397 444.959 650.097 448.355 650.097 452.583C650.097 456.811 653.397 460.207 657.431 460.207C661.464 460.207 664.765 456.811 664.765 452.583C664.765 448.355 661.464 444.959 657.431 444.959Z" stroke="white"/>
<path d="M691.378 441.477C700.47 441.477 708.681 442.771 714.6 444.848C717.562 445.888 719.925 447.113 721.536 448.45C723.15 449.789 723.954 451.188 723.954 452.583C723.954 453.977 723.15 455.376 721.536 456.715C719.925 458.052 717.562 459.279 714.6 460.318C708.681 462.395 700.47 463.688 691.378 463.688C682.285 463.688 674.075 462.395 668.155 460.318C665.193 459.279 662.832 458.052 661.22 456.715C659.606 455.376 658.801 453.977 658.801 452.583C658.801 451.188 659.606 449.789 661.22 448.45C662.832 447.113 665.193 445.887 668.155 444.848C674.075 442.771 682.285 441.477 691.378 441.477Z" stroke="white"/>
<path d="M633.349 439.526H653.949L657.141 442.138M742.153 460.127L750.277 466.8H791.477" stroke="white"/>
<path d="M218.735 227.142C219.432 227.142 238.175 227.142 247.459 227.142L250.071 225.691" stroke="white"/>
</svg>
