<svg width="336" height="332" viewBox="0 0 336 332" fill="none" xmlns="http://www.w3.org/2000/svg">
<path d="M302.801 243.738H32.7782L167.789 9.89145L302.801 243.738Z" stroke="white" stroke-width="5"/>
<path d="M167.789 8L305.399 86.5M167.789 8L30.5 86.5M167.789 8V168.274M305.399 86.5V246M305.399 86.5L167.789 168.274M305.399 246L167.789 325.275M305.399 246L167.789 168.274M167.789 325.275L30.5 246M167.789 325.275V168.274M30.5 246V86.5M30.5 246L167.789 168.274M30.5 86.5L167.789 168.274" stroke="white" stroke-width="5"/>
<path d="M302.801 87.8408L167.789 321.687L32.7775 87.841L302.801 87.8408Z" stroke="white" stroke-width="5"/>
<path d="M167.5 2.5C258.648 2.5 332.5 75.7226 332.5 166C332.5 256.277 258.648 329.5 167.5 329.5C76.3518 329.5 2.5 256.277 2.5 166C2.5 75.7226 76.3518 2.5 167.5 2.5Z" stroke="white" stroke-width="5"/>
</svg>
